<?xml version="1.0" encoding="UTF-8" standalone="no"?>
<!DOCTYPE svg PUBLIC "-//W3C//DTD SVG 1.1//EN" "http://www.w3.org/Graphics/SVG/1.1/DTD/svg11.dtd">
<svg xmlns="http://www.w3.org/2000/svg" version="1.1" viewBox="0.00 0.00 1024.00 1024.00">
<g stroke-width="2.00" fill="none" stroke-linecap="butt">
<path stroke="#0c3e5e" vector-effect="non-scaling-stroke" d="
  M 446.45 382.26
  L 446.70 381.84
  Q 446.84 381.60 446.63 381.00
  Q 446.54 380.75 446.23 380.75
  A 0.17 0.17 0.0 0 1 446.14 380.44
  Q 446.93 379.89 447.87 379.99
  Q 448.29 380.04 448.66 379.82
  Q 448.87 379.69 449.02 379.50
  Q 449.34 379.11 449.84 379.09
  Q 451.36 379.03 452.85 378.72
  C 455.42 378.19 457.50 378.38 459.99 378.69
  A 1.06 1.05 25.7 0 0 460.86 378.39
  C 464.11 375.18 467.40 373.30 471.19 370.85
  Q 471.62 370.57 472.07 370.82
  Q 474.36 372.08 477.03 372.24"
/>
<path stroke="#0c3e5e" vector-effect="non-scaling-stroke" d="
  M 295.60 392.78
  Q 292.00 392.43 288.07 394.66
  Q 287.88 394.77 287.88 394.98
  Q 287.88 395.13 287.88 395.26
  Q 287.89 395.70 287.46 395.78
  Q 281.88 396.82 279.93 398.01
  Q 278.03 399.17 275.94 399.93
  Q 271.86 401.43 267.79 403.15
  C 266.94 403.51 266.11 403.19 265.51 403.50
  C 262.47 405.05 259.27 405.02 256.51 405.38
  Q 252.09 405.95 247.97 405.29
  A 1.48 1.48 0.0 0 0 246.46 407.51
  Q 246.58 407.72 245.92 408.25
  Q 245.86 408.29 245.88 408.22
  Q 245.91 408.09 245.85 407.95
  Q 245.67 407.50 245.37 407.89
  Q 244.72 408.73 244.89 409.79
  Q 244.94 410.07 244.68 409.96
  Q 244.44 409.86 244.28 409.98"
/>
<path stroke="#106177" vector-effect="non-scaling-stroke" d="
  M 280.93 481.83
  C 279.92 480.52 281.32 478.85 279.66 477.76
  Q 279.25 477.49 279.14 477.97
  Q 279.02 478.48 278.59 478.91
  Q 278.24 479.25 277.76 479.25
  C 274.38 479.30 270.52 480.79 267.35 481.96
  Q 263.48 483.38 261.11 484.15
  Q 253.01 486.81 248.37 489.11
  C 245.50 490.53 242.25 491.73 239.52 492.30
  Q 239.04 492.40 238.95 492.88
  L 238.88 493.28
  Q 238.79 493.74 238.32 493.74
  L 237.14 493.74"
/>
<path stroke="#128784" vector-effect="non-scaling-stroke" d="
  M 286.28 529.70
  Q 282.33 531.63 278.34 533.33
  C 276.82 533.97 275.27 535.16 273.63 535.80
  C 270.12 537.17 267.17 538.69 263.73 539.68
  C 261.13 540.43 258.99 541.56 256.57 542.58
  A 0.75 0.74 78.8 0 0 256.12 543.27
  L 256.12 543.73
  A 0.46 0.46 0.0 0 1 255.56 544.18
  Q 253.00 543.64 251.28 545.43
  Q 250.95 545.78 250.48 545.70
  Q 248.52 545.37 247.35 546.83
  Q 247.29 546.91 247.18 546.90
  Q 247.02 546.89 246.88 546.82
  Q 246.64 546.71 246.66 546.98
  Q 246.68 547.19 246.67 547.40
  Q 246.66 547.72 246.47 547.75
  Q 246.27 547.77 245.97 547.56"
/>
<path stroke="#26b18b" vector-effect="non-scaling-stroke" d="
  M 359.76 656.41
  C 353.49 659.48 346.54 662.83 339.71 664.18
  Q 339.24 664.27 338.90 664.59
  Q 338.04 665.40 336.79 665.49
  Q 336.25 665.53 336.01 666.02
  Q 335.76 666.51 335.22 666.75
  A 0.38 0.38 0.0 0 0 335.14 667.40
  Q 335.54 667.70 336.00 667.64
  A 0.02 0.01 32.9 0 0 335.99 667.61
  L 325.83 668.24
  Q 324.86 668.29 325.67 667.76
  L 326.45 667.23
  Q 327.29 666.67 326.28 666.65
  L 321.55 666.57
  Q 321.09 666.56 320.83 666.94
  Q 320.67 667.18 320.41 667.12
  Q 320.18 667.07 320.07 666.86
  Q 319.98 666.69 319.75 666.62
  Q 318.93 666.36 316.31 666.23
  Q 316.24 666.22 316.22 666.29
  L 316.11 666.74
  A 0.23 0.21 88.0 0 1 315.98 666.89
  Q 314.83 667.31 314.08 668.53"
/>
<path stroke="#0c3e5e" vector-effect="non-scaling-stroke" d="
  M 599.06 360.83
  Q 599.85 356.46 596.86 355.68
  Q 596.38 355.55 595.92 355.74
  Q 594.12 356.49 590.00 356.89
  Q 582.24 357.63 578.29 356.71
  Q 576.85 356.37 575.32 356.43
  Q 574.82 356.45 574.38 356.20
  C 573.57 355.74 572.88 355.65 571.97 355.90
  Q 571.49 356.04 571.04 355.53"
/>
<path stroke="#128784" vector-effect="non-scaling-stroke" d="
  M 759.35 423.59
  Q 758.85 423.35 758.78 422.85
  Q 758.70 422.31 758.21 422.54
  Q 757.71 422.78 757.25 422.55
  Q 756.81 422.34 756.33 422.45
  Q 754.91 422.81 753.89 423.83
  Q 753.37 424.36 753.37 423.62
  L 753.36 421.52
  Q 753.36 421.06 752.91 420.96
  C 751.07 420.56 749.68 421.53 748.38 421.78
  Q 745.38 422.37 742.38 422.98
  Q 742.34 422.99 742.35 423.04
  Q 742.45 423.34 742.27 422.89
  Q 742.26 422.86 742.22 422.86
  L 738.22 422.84
  Q 737.51 422.84 737.85 422.22
  L 737.98 421.97
  Q 738.43 421.15 737.49 421.15
  L 736.49 421.15
  Q 736.08 421.15 736.08 420.74
  L 736.08 419.77
  Q 736.08 419.23 735.54 419.27
  Q 733.67 419.41 733.73 421.02
  A 0.41 0.40 -70.2 0 1 733.06 421.34
  Q 732.82 421.12 732.50 421.16
  Q 731.84 421.25 731.70 421.36
  Q 730.59 422.16 729.25 422.42
  Q 728.67 422.53 728.96 422.02
  Q 729.07 421.84 729.10 421.63
  Q 729.17 421.16 728.69 421.11
  L 719.75 420.18
  Q 719.14 420.12 719.40 419.56
  Q 719.78 418.74 718.99 418.49
  A 1.61 0.27 18.9 0 0 717.70 418.28
  L 717.46 418.39
  Q 716.99 418.62 716.59 418.27
  L 715.16 417.01
  Q 714.93 416.81 714.71 417.01
  Q 713.93 417.71 712.50 417.76"
/>
<path stroke="#128784" vector-effect="non-scaling-stroke" d="
  M 570.66 431.97
  Q 570.29 432.20 570.05 432.67
  Q 569.83 433.11 569.40 433.33
  Q 568.53 433.79 567.97 434.58
  A 0.76 0.76 0.0 0 1 567.21 434.89
  Q 566.42 434.73 566.37 435.39
  A 0.76 0.76 0.0 0 1 566.10 435.90
  C 563.36 438.26 560.92 440.43 557.65 442.39
  Q 554.48 444.31 551.56 446.58
  Q 551.35 446.75 551.26 446.95
  Q 551.15 447.22 551.12 447.52
  Q 551.10 447.88 550.73 447.88
  L 549.52 447.88
  Q 548.92 447.88 549.04 448.47
  L 549.15 448.97
  Q 549.30 449.64 548.63 449.44
  Q 548.05 449.27 547.99 449.62"
/>
<path stroke="#128784" vector-effect="non-scaling-stroke" d="
  M 485.25 465.80
  Q 485.08 466.02 485.01 466.50
  A 0.11 0.11 0.0 0 1 484.82 466.56
  Q 484.72 466.47 484.63 466.38
  Q 484.47 466.21 484.30 466.37
  Q 482.83 467.65 481.39 468.95
  Q 480.16 470.07 478.50 471.10
  Q 474.62 473.49 471.25 476.59
  C 470.55 477.23 469.64 477.38 468.75 477.38
  Q 468.21 477.38 468.05 477.89
  L 467.90 478.40
  Q 467.75 478.88 467.28 479.04
  Q 466.39 479.35 466.43 480.23
  Q 466.44 480.64 466.12 480.90
  Q 464.57 482.14 465.29 483.74"
/>
<path stroke="#14a98b" vector-effect="non-scaling-stroke" d="
  M 527.00 589.71
  L 526.82 585.96
  A 0.32 0.31 -39.3 0 0 526.20 585.90
  L 526.13 586.16
  Q 526.08 586.36 525.87 586.33
  Q 524.63 586.15 523.51 586.75
  Q 523.08 586.99 522.58 587.05
  Q 520.61 587.31 520.05 589.33
  Q 519.90 589.86 519.49 590.22
  Q 518.82 590.82 518.18 591.46
  Q 517.86 591.79 517.44 591.95
  Q 516.08 592.46 514.87 592.08
  Q 514.41 591.93 513.97 592.13
  Q 510.38 593.79 507.41 596.43
  Q 506.03 597.65 505.77 599.49
  Q 505.70 599.96 505.25 600.07
  Q 504.05 600.37 503.66 601.96"
/>
<path stroke="#25bc8d" vector-effect="non-scaling-stroke" d="
  M 777.54 569.72
  Q 776.41 570.06 777.44 569.21
  Q 777.68 569.00 777.49 568.75
  Q 777.37 568.60 777.22 568.50
  A 0.39 0.39 0.0 0 0 776.64 568.68
  L 776.40 569.28
  A 0.07 0.07 0.0 0 1 776.29 569.30
  Q 776.11 569.12 775.94 568.96
  A 0.58 0.57 -29.3 0 0 775.39 568.81
  L 761.63 572.23
  Q 761.37 572.30 761.36 572.03
  Q 761.36 571.88 761.36 571.72
  Q 761.37 571.07 760.73 571.23
  C 756.32 572.33 751.63 573.00 747.43 574.83
  Q 746.98 575.03 747.25 575.45
  Q 747.75 576.18 748.49 575.95
  A 0.04 0.04 0.0 0 0 748.48 575.88
  C 745.42 575.88 742.10 576.04 739.26 577.43
  Q 737.39 578.35 735.46 579.08
  C 732.76 580.09 730.66 582.02 727.94 583.13
  Q 726.23 583.82 724.79 584.81
  C 723.43 585.76 721.15 587.31 719.51 586.62
  Q 719.09 586.45 718.70 586.67
  Q 717.37 587.44 716.71 588.82
  Q 716.52 589.22 716.10 589.35
  Q 715.57 589.51 715.36 590.01
  Q 715.16 590.49 714.67 590.67
  Q 714.33 590.80 713.91 590.78"
/>
</g>
<circle fill="#062a4c" cx="515.23" cy="237.37" r="24.62"/>
<path fill="#115270" d="
  M 441.51 229.42
  C 414.81 236.31 393.52 245.79 370.87 258.11
  C 369.41 258.90 367.24 260.24 366.33 257.74
  A 1.45 1.45 0.0 0 1 366.72 256.16
  Q 368.09 254.94 369.77 253.97
  C 387.52 243.70 404.71 236.30 423.73 229.97
  C 432.43 227.07 442.02 225.20 451.24 222.92
  Q 458.44 221.14 476.14 219.21
  Q 477.93 219.02 478.11 220.81
  L 478.18 221.53
  Q 478.36 223.28 476.61 223.49
  Q 454.68 226.02 441.51 229.42
  Z"
/>
<path fill="#0f707e" d="
  M 661.73 259.22
  C 646.32 250.74 630.59 242.47 614.57 237.43
  C 607.04 235.06 599.16 232.01 592.03 230.28
  Q 574.67 226.06 554.80 224.19
  Q 552.28 223.95 552.52 221.44
  L 552.56 221.07
  A 1.53 1.53 0.0 0 1 554.18 219.69
  C 569.51 220.58 583.80 223.83 598.34 227.65
  C 607.28 230.00 616.43 233.79 625.48 236.98
  Q 640.89 242.42 662.70 255.06
  Q 664.45 256.08 663.81 258.00
  L 663.66 258.46
  A 1.35 1.35 0.0 0 1 661.73 259.22
  Z"
/>
<path fill="#062a4c" d="
  M 361.86 318.53
  C 341.97 309.58 327.78 297.66 313.96 282.53
  Q 312.47 280.90 311.29 279.04
  A 0.41 0.40 -15.3 0 1 311.65 278.42
  C 326.33 278.76 344.23 279.24 356.00 278.79
  C 372.79 278.15 387.92 273.97 403.50 267.96
  C 411.45 264.89 419.11 260.66 426.70 256.56
  C 438.46 250.20 454.84 243.26 467.66 250.34
  C 476.34 255.14 476.64 263.61 478.47 271.98
  Q 482.16 288.76 496.24 297.63
  A 2.02 2.00 15.7 0 1 497.18 299.29
  C 497.42 309.78 498.92 319.33 490.35 327.36
  Q 488.80 328.81 487.32 327.65
  C 478.96 321.09 472.70 316.14 461.50 315.35
  Q 447.65 314.37 434.92 320.09
  C 421.18 326.26 407.49 329.40 392.89 327.62
  Q 378.07 325.82 361.86 318.53
  Z"
/>
<path fill="#062a4c" d="
  M 704.32 294.32
  C 686.76 311.20 663.64 323.46 639.44 327.36
  C 624.84 329.71 609.70 326.72 595.58 320.21
  C 578.48 312.33 558.16 313.29 544.59 327.13
  Q 542.66 329.10 540.93 327.86
  C 532.25 321.66 533.33 309.16 533.74 299.47
  A 1.47 1.47 0.0 0 1 534.07 298.60
  Q 534.95 297.50 535.59 297.10
  C 549.77 288.12 551.64 274.80 555.09 260.61
  C 558.52 246.48 576.19 245.64 587.57 249.69
  Q 595.79 252.61 598.51 254.01
  Q 609.86 259.82 621.24 265.56
  Q 627.07 268.50 642.75 273.54
  C 655.15 277.53 667.84 278.71 682.23 278.79
  Q 700.01 278.88 717.84 278.54
  A 0.41 0.41 0.0 0 1 718.19 279.17
  C 714.66 284.67 709.01 289.80 704.32 294.32
  Z"
/>
<path fill="#115270" d="
  M 446.45 382.26
  L 446.70 381.84
  Q 446.84 381.60 446.63 381.00
  Q 446.54 380.75 446.23 380.75
  A 0.17 0.17 0.0 0 1 446.14 380.44
  Q 446.93 379.89 447.87 379.99
  Q 448.29 380.04 448.66 379.82
  Q 448.87 379.69 449.02 379.50
  Q 449.34 379.11 449.84 379.09
  Q 451.36 379.03 452.85 378.72
  C 455.42 378.19 457.50 378.38 459.99 378.69
  A 1.06 1.05 25.7 0 0 460.86 378.39
  C 464.11 375.18 467.40 373.30 471.19 370.85
  Q 471.62 370.57 472.07 370.82
  Q 474.36 372.08 477.03 372.24
  Q 489.30 381.03 502.49 387.35
  Q 503.52 387.85 503.52 386.70
  L 503.32 271.12
  Q 503.32 270.06 504.38 270.06
  L 526.12 270.01
  A 0.87 0.86 -0.0 0 1 526.99 270.87
  L 527.06 408.34
  Q 527.06 409.02 526.39 409.09
  C 495.91 412.38 468.49 403.43 446.45 382.26
  Z"
/>
<path fill="#062a4c" d="
  M 295.60 392.78
  Q 292.00 392.43 288.07 394.66
  Q 287.88 394.77 287.88 394.98
  Q 287.88 395.13 287.88 395.26
  Q 287.89 395.70 287.46 395.78
  Q 281.88 396.82 279.93 398.01
  Q 278.03 399.17 275.94 399.93
  Q 271.86 401.43 267.79 403.15
  C 266.94 403.51 266.11 403.19 265.51 403.50
  C 262.47 405.05 259.27 405.02 256.51 405.38
  Q 252.09 405.95 247.97 405.29
  A 1.48 1.48 0.0 0 0 246.46 407.51
  Q 246.58 407.72 245.92 408.25
  Q 245.86 408.29 245.88 408.22
  Q 245.91 408.09 245.85 407.95
  Q 245.67 407.50 245.37 407.89
  Q 244.72 408.73 244.89 409.79
  Q 244.94 410.07 244.68 409.96
  Q 244.44 409.86 244.28 409.98
  C 253.11 372.98 270.22 336.88 294.50 307.47
  A 0.63 0.62 35.8 0 1 295.32 307.34
  Q 296.27 307.95 297.25 309.00
  C 306.55 318.88 316.64 325.65 327.45 332.74
  Q 328.73 333.59 327.80 334.81
  C 316.35 349.92 306.53 365.86 299.46 383.49
  Q 297.53 388.29 295.60 392.78
  Z"
/>
<path fill="#062a4c" d="
  M 702.73 340.62
  A 1.85 1.85 0.0 0 1 702.60 338.01
  L 720.88 317.85
  A 15.16 12.81 -47.8 0 1 740.55 315.23
  L 741.11 315.74
  A 15.16 12.81 -47.8 0 1 740.42 335.57
  L 722.14 355.73
  A 1.85 1.85 0.0 0 1 719.53 355.86
  L 702.73 340.62
  Z"
/>
<path fill="#062a4c" d="
  M 477.03 372.24
  Q 474.36 372.08 472.07 370.82
  Q 471.62 370.57 471.19 370.85
  C 467.40 373.30 464.11 375.18 460.86 378.39
  A 1.06 1.05 25.7 0 1 459.99 378.69
  C 457.50 378.38 455.42 378.19 452.85 378.72
  Q 451.36 379.03 449.84 379.09
  Q 449.34 379.11 449.02 379.50
  Q 448.87 379.69 448.66 379.82
  Q 448.29 380.04 447.87 379.99
  Q 446.93 379.89 446.14 380.44
  A 0.17 0.17 0.0 0 0 446.23 380.75
  Q 446.54 380.75 446.63 381.00
  Q 446.84 381.60 446.70 381.84
  L 446.45 382.26
  Q 435.96 372.83 431.76 361.95
  C 429.24 355.41 431.17 348.01 435.22 342.21
  Q 444.12 329.46 461.02 329.21
  C 469.58 329.09 479.36 333.09 481.24 341.99
  C 482.00 345.61 479.45 349.38 475.74 349.64
  C 470.23 350.03 466.52 343.94 460.72 347.22
  C 456.05 349.86 457.88 353.16 460.54 356.48
  Q 467.69 365.40 477.03 372.24
  Z"
/>
<path fill="#062a4c" d="
  M 599.06 360.83
  Q 599.85 356.46 596.86 355.68
  Q 596.38 355.55 595.92 355.74
  Q 594.12 356.49 590.00 356.89
  Q 582.24 357.63 578.29 356.71
  Q 576.85 356.37 575.32 356.43
  Q 574.82 356.45 574.38 356.20
  C 573.57 355.74 572.88 355.65 571.97 355.90
  Q 571.49 356.04 571.04 355.53
  C 572.39 353.41 573.80 351.70 572.17 349.57
  C 568.38 344.65 563.60 346.64 558.84 348.88
  C 550.84 352.65 547.52 344.85 550.72 338.72
  Q 554.03 332.41 560.98 330.53
  Q 577.63 326.04 590.58 336.95
  C 597.08 342.43 601.51 352.26 599.06 360.83
  Z"
/>
<path fill="#0f707e" d="
  M 759.35 423.59
  Q 758.85 423.35 758.78 422.85
  Q 758.70 422.31 758.21 422.54
  Q 757.71 422.78 757.25 422.55
  Q 756.81 422.34 756.33 422.45
  Q 754.91 422.81 753.89 423.83
  Q 753.37 424.36 753.37 423.62
  L 753.36 421.52
  Q 753.36 421.06 752.91 420.96
  C 751.07 420.56 749.68 421.53 748.38 421.78
  Q 745.38 422.37 742.38 422.98
  Q 742.34 422.99 742.35 423.04
  Q 742.45 423.34 742.27 422.89
  Q 742.26 422.86 742.22 422.86
  L 738.22 422.84
  Q 737.51 422.84 737.85 422.22
  L 737.98 421.97
  Q 738.43 421.15 737.49 421.15
  L 736.49 421.15
  Q 736.08 421.15 736.08 420.74
  L 736.08 419.77
  Q 736.08 419.23 735.54 419.27
  Q 733.67 419.41 733.73 421.02
  A 0.41 0.40 -70.2 0 1 733.06 421.34
  Q 732.82 421.12 732.50 421.16
  Q 731.84 421.25 731.70 421.36
  Q 730.59 422.16 729.25 422.42
  Q 728.67 422.53 728.96 422.02
  Q 729.07 421.84 729.10 421.63
  Q 729.17 421.16 728.69 421.11
  L 719.75 420.18
  Q 719.14 420.12 719.40 419.56
  Q 719.78 418.74 718.99 418.49
  A 1.61 0.27 18.9 0 0 717.70 418.28
  L 717.46 418.39
  Q 716.99 418.62 716.59 418.27
  L 715.16 417.01
  Q 714.93 416.81 714.71 417.01
  Q 713.93 417.71 712.50 417.76
  C 730.89 395.15 746.60 370.68 756.17 342.97
  A 0.77 0.77 0.0 0 1 757.49 342.72
  Q 759.59 345.19 761.24 348.33
  Q 773.19 371.14 779.95 392.83
  Q 780.40 394.29 779.20 395.99
  Q 769.39 409.87 759.35 423.59
  Z"
/>
<rect fill="#062a4c" x="-13.09" y="-4.42" transform="translate(704.40,355.92) rotate(41.7)" width="26.18" height="8.84" rx="1.60"/>
<rect fill="#149e89" x="-7.30" y="-7.43" transform="translate(365.80,356.33) rotate(0.3)" width="14.60" height="14.86" rx="6.66"/>
<path fill="#115270" d="
  M 571.04 355.53
  Q 571.49 356.04 571.97 355.90
  C 572.88 355.65 573.57 355.74 574.38 356.20
  Q 574.82 356.45 575.32 356.43
  Q 576.85 356.37 578.29 356.71
  Q 582.24 357.63 590.00 356.89
  Q 594.12 356.49 595.92 355.74
  Q 596.38 355.55 596.86 355.68
  Q 599.85 356.46 599.06 360.83
  Q 596.91 367.73 591.42 374.43
  Q 569.99 400.60 536.53 407.91
  A 1.27 1.27 0.0 0 1 534.99 406.69
  Q 534.78 396.49 534.79 385.49
  Q 534.79 383.32 536.69 382.41
  Q 556.78 372.74 571.04 355.53
  Z"
/>
<path fill="#062a4c" d="
  M 634.97 413.14
  L 686.81 356.24
  A 1.50 1.50 0.0 0 1 688.93 356.14
  L 705.74 371.45
  A 1.50 1.50 0.0 0 1 705.83 373.58
  L 653.86 429.64
  A 1.50 1.50 0.0 0 1 651.77 429.75
  L 635.10 415.29
  A 1.50 1.50 0.0 0 1 634.97 413.14
  Z"
/>
<ellipse fill="#062a4c" cx="0.00" cy="0.00" transform="translate(350.91,401.38) rotate(-18.0)" rx="11.62" ry="11.44"/>
<path fill="#115270" d="
  M 295.60 392.78
  Q 289.59 410.44 287.05 421.00
  Q 280.13 449.68 280.93 481.83
  C 279.92 480.52 281.32 478.85 279.66 477.76
  Q 279.25 477.49 279.14 477.97
  Q 279.02 478.48 278.59 478.91
  Q 278.24 479.25 277.76 479.25
  C 274.38 479.30 270.52 480.79 267.35 481.96
  Q 263.48 483.38 261.11 484.15
  Q 253.01 486.81 248.37 489.11
  C 245.50 490.53 242.25 491.73 239.52 492.30
  Q 239.04 492.40 238.95 492.88
  L 238.88 493.28
  Q 238.79 493.74 238.32 493.74
  L 237.14 493.74
  Q 234.43 451.30 244.28 409.98
  Q 244.44 409.86 244.68 409.96
  Q 244.94 410.07 244.89 409.79
  Q 244.72 408.73 245.37 407.89
  Q 245.67 407.50 245.85 407.95
  Q 245.91 408.09 245.88 408.22
  Q 245.86 408.29 245.92 408.25
  Q 246.58 407.72 246.46 407.51
  A 1.48 1.48 0.0 0 1 247.97 405.29
  Q 252.09 405.95 256.51 405.38
  C 259.27 405.02 262.47 405.05 265.51 403.50
  C 266.11 403.19 266.94 403.51 267.79 403.15
  Q 271.86 401.43 275.94 399.93
  Q 278.03 399.17 279.93 398.01
  Q 281.88 396.82 287.46 395.78
  Q 287.89 395.70 287.88 395.26
  Q 287.88 395.13 287.88 394.98
  Q 287.88 394.77 288.07 394.66
  Q 292.00 392.43 295.60 392.78
  Z"
/>
<ellipse fill="#149e89" cx="0.00" cy="0.00" transform="translate(415.97,405.10) rotate(38.5)" rx="10.67" ry="10.39"/>
<path fill="#149e89" d="
  M 759.35 423.59
  C 734.46 456.48 705.76 486.42 669.42 506.13
  C 661.00 510.70 652.14 514.09 643.12 508.36
  C 630.69 500.48 633.01 482.38 646.08 476.59
  C 656.90 471.78 663.67 467.38 673.56 458.57
  Q 694.69 439.75 712.50 417.76
  Q 713.93 417.71 714.71 417.01
  Q 714.93 416.81 715.16 417.01
  L 716.59 418.27
  Q 716.99 418.62 717.46 418.39
  L 717.70 418.28
  A 1.61 0.27 18.9 0 1 718.99 418.49
  Q 719.78 418.74 719.40 419.56
  Q 719.14 420.12 719.75 420.18
  L 728.69 421.11
  Q 729.17 421.16 729.10 421.63
  Q 729.07 421.84 728.96 422.02
  Q 728.67 422.53 729.25 422.42
  Q 730.59 422.16 731.70 421.36
  Q 731.84 421.25 732.50 421.16
  Q 732.82 421.12 733.06 421.34
  A 0.41 0.40 -70.2 0 0 733.73 421.02
  Q 733.67 419.41 735.54 419.27
  Q 736.08 419.23 736.08 419.77
  L 736.08 420.74
  Q 736.08 421.15 736.49 421.15
  L 737.49 421.15
  Q 738.43 421.15 737.98 421.97
  L 737.85 422.22
  Q 737.51 422.84 738.22 422.84
  L 742.22 422.86
  Q 742.26 422.86 742.27 422.89
  Q 742.45 423.34 742.35 423.04
  Q 742.34 422.99 742.38 422.98
  Q 745.38 422.37 748.38 421.78
  C 749.68 421.53 751.07 420.56 752.91 420.96
  Q 753.36 421.06 753.36 421.52
  L 753.37 423.62
  Q 753.37 424.36 753.89 423.83
  Q 754.91 422.81 756.33 422.45
  Q 756.81 422.34 757.25 422.55
  Q 757.71 422.78 758.21 422.54
  Q 758.70 422.31 758.78 422.85
  Q 758.85 423.35 759.35 423.59
  Z"
/>
<path fill="#062a4c" d="
  M 631.26 432.57
  L 615.39 452.38
  A 0.87 0.87 0.0 0 1 613.92 452.21
  L 613.49 451.29
  A 2.17 2.15 47.9 0 1 613.58 449.27
  Q 619.54 439.26 627.17 430.44
  A 1.40 1.40 0.0 0 0 627.25 428.72
  L 624.88 425.43
  A 2.15 2.15 0.0 0 1 625.08 422.68
  L 628.14 419.51
  A 2.20 2.19 43.4 0 1 631.21 419.43
  L 647.83 434.74
  A 0.86 0.86 0.0 0 1 647.88 435.97
  L 643.53 440.69
  Q 643.09 441.18 642.58 440.76
  L 632.46 432.44
  A 0.85 0.85 0.0 0 0 631.26 432.57
  Z"
/>
<path fill="#0f707e" d="
  M 570.66 431.97
  Q 570.29 432.20 570.05 432.67
  Q 569.83 433.11 569.40 433.33
  Q 568.53 433.79 567.97 434.58
  A 0.76 0.76 0.0 0 1 567.21 434.89
  Q 566.42 434.73 566.37 435.39
  A 0.76 0.76 0.0 0 1 566.10 435.90
  C 563.36 438.26 560.92 440.43 557.65 442.39
  Q 554.48 444.31 551.56 446.58
  Q 551.35 446.75 551.26 446.95
  Q 551.15 447.22 551.12 447.52
  Q 551.10 447.88 550.73 447.88
  L 549.52 447.88
  Q 548.92 447.88 549.04 448.47
  L 549.15 448.97
  Q 549.30 449.64 548.63 449.44
  Q 548.05 449.27 547.99 449.62
  Q 516.86 442.84 485.00 444.15
  C 480.62 444.33 476.93 445.43 476.54 449.76
  C 475.89 457.08 480.36 461.28 485.25 465.80
  Q 485.08 466.02 485.01 466.50
  A 0.11 0.11 0.0 0 1 484.82 466.56
  Q 484.72 466.47 484.63 466.38
  Q 484.47 466.21 484.30 466.37
  Q 482.83 467.65 481.39 468.95
  Q 480.16 470.07 478.50 471.10
  Q 474.62 473.49 471.25 476.59
  C 470.55 477.23 469.64 477.38 468.75 477.38
  Q 468.21 477.38 468.05 477.89
  L 467.90 478.40
  Q 467.75 478.88 467.28 479.04
  Q 466.39 479.35 466.43 480.23
  Q 466.44 480.64 466.12 480.90
  Q 464.57 482.14 465.29 483.74
  C 455.23 476.21 447.45 463.67 448.03 450.76
  C 448.98 429.62 465.70 423.42 483.89 421.59
  C 501.42 419.83 518.78 420.63 536.25 422.74
  C 547.30 424.08 561.28 426.26 570.66 431.97
  Z"
/>
<path fill="#13b38d" d="
  M 619.51 426.45
  C 619.50 434.58 616.88 440.79 611.80 447.72
  Q 611.51 448.11 611.28 447.69
  L 611.13 447.39
  A 1.18 1.17 44.7 0 1 611.12 446.27
  Q 615.74 437.43 617.70 427.51
  Q 617.94 426.31 618.70 425.94
  A 0.57 0.56 77.0 0 1 619.51 426.45
  Z"
/>
<path fill="#149e89" d="
  M 570.66 431.97
  Q 580.81 437.18 582.71 447.49
  C 588.28 477.72 562.25 489.55 537.42 493.56
  Q 533.56 494.18 537.34 495.17
  Q 545.75 497.36 554.94 500.88
  C 567.17 505.57 576.95 509.42 576.71 524.24
  C 576.33 548.39 555.63 561.27 535.76 568.89
  A 0.36 0.36 0.0 0 1 535.27 568.56
  Q 535.19 557.07 535.29 545.49
  Q 535.31 543.91 537.38 542.60
  C 545.75 537.30 560.15 521.85 548.54 511.94
  C 543.07 507.27 534.79 504.81 527.97 503.11
  A 0.70 0.70 0.0 0 0 527.11 503.79
  L 527.00 589.71
  L 526.82 585.96
  A 0.32 0.31 -39.3 0 0 526.20 585.90
  L 526.13 586.16
  Q 526.08 586.36 525.87 586.33
  Q 524.63 586.15 523.51 586.75
  Q 523.08 586.99 522.58 587.05
  Q 520.61 587.31 520.05 589.33
  Q 519.90 589.86 519.49 590.22
  Q 518.82 590.82 518.18 591.46
  Q 517.86 591.79 517.44 591.95
  Q 516.08 592.46 514.87 592.08
  Q 514.41 591.93 513.97 592.13
  Q 510.38 593.79 507.41 596.43
  Q 506.03 597.65 505.77 599.49
  Q 505.70 599.96 505.25 600.07
  Q 504.05 600.37 503.66 601.96
  L 503.36 569.48
  Q 503.35 568.45 502.33 568.28
  C 485.03 565.48 469.27 558.24 460.21 542.81
  C 453.97 532.20 449.05 512.39 463.85 506.50
  C 469.32 504.33 478.55 501.15 485.00 501.87
  A 0.34 0.33 29.6 0 1 485.17 502.47
  C 475.15 510.10 476.01 523.66 483.10 532.86
  Q 490.93 543.00 502.14 549.27
  A 0.70 0.70 0.0 0 0 503.18 548.66
  L 503.46 499.65
  A 1.73 1.73 0.0 0 0 502.02 497.93
  C 488.78 495.63 476.18 491.72 465.29 483.74
  Q 464.57 482.14 466.12 480.90
  Q 466.44 480.64 466.43 480.23
  Q 466.39 479.35 467.28 479.04
  Q 467.75 478.88 467.90 478.40
  L 468.05 477.89
  Q 468.21 477.38 468.75 477.38
  C 469.64 477.38 470.55 477.23 471.25 476.59
  Q 474.62 473.49 478.50 471.10
  Q 480.16 470.07 481.39 468.95
  Q 482.83 467.65 484.30 466.37
  Q 484.47 466.21 484.63 466.38
  Q 484.72 466.47 484.82 466.56
  A 0.11 0.11 0.0 0 0 485.01 466.50
  Q 485.08 466.02 485.25 465.80
  Q 493.16 471.63 502.16 474.79
  Q 503.06 475.10 503.06 474.15
  L 503.12 452.46
  A 0.92 0.92 0.0 0 1 504.19 451.55
  L 525.45 454.97
  A 1.80 1.78 -85.6 0 1 526.95 456.73
  L 527.03 475.00
  A 0.87 0.87 0.0 0 0 528.07 475.85
  C 537.99 473.87 547.21 469.45 552.79 460.60
  C 554.17 458.42 556.11 453.22 552.74 451.50
  Q 550.49 450.36 547.99 449.62
  Q 548.05 449.27 548.63 449.44
  Q 549.30 449.64 549.15 448.97
  L 549.04 448.47
  Q 548.92 447.88 549.52 447.88
  L 550.73 447.88
  Q 551.10 447.88 551.12 447.52
  Q 551.15 447.22 551.26 446.95
  Q 551.35 446.75 551.56 446.58
  Q 554.48 444.31 557.65 442.39
  C 560.92 440.43 563.36 438.26 566.10 435.90
  A 0.76 0.76 0.0 0 0 566.37 435.39
  Q 566.42 434.73 567.21 434.89
  A 0.76 0.76 0.0 0 0 567.97 434.58
  Q 568.53 433.79 569.40 433.33
  Q 569.83 433.11 570.05 432.67
  Q 570.29 432.20 570.66 431.97
  Z"
/>
<path fill="#13b38d" d="
  M 777.54 569.72
  Q 776.41 570.06 777.44 569.21
  Q 777.68 569.00 777.49 568.75
  Q 777.37 568.60 777.22 568.50
  A 0.39 0.39 0.0 0 0 776.64 568.68
  L 776.40 569.28
  A 0.07 0.07 0.0 0 1 776.29 569.30
  Q 776.11 569.12 775.94 568.96
  A 0.58 0.57 -29.3 0 0 775.39 568.81
  L 761.63 572.23
  Q 761.37 572.30 761.36 572.03
  Q 761.36 571.88 761.36 571.72
  Q 761.37 571.07 760.73 571.23
  C 756.32 572.33 751.63 573.00 747.43 574.83
  Q 746.98 575.03 747.25 575.45
  Q 747.75 576.18 748.49 575.95
  A 0.04 0.04 0.0 0 0 748.48 575.88
  C 745.42 575.88 742.10 576.04 739.26 577.43
  Q 737.39 578.35 735.46 579.08
  C 732.76 580.09 730.66 582.02 727.94 583.13
  Q 726.23 583.82 724.79 584.81
  C 723.43 585.76 721.15 587.31 719.51 586.62
  Q 719.09 586.45 718.70 586.67
  Q 717.37 587.44 716.71 588.82
  Q 716.52 589.22 716.10 589.35
  Q 715.57 589.51 715.36 590.01
  Q 715.16 590.49 714.67 590.67
  Q 714.33 590.80 713.91 590.78
  C 721.70 583.92 727.90 572.34 725.81 561.72
  Q 725.41 559.74 723.49 560.34
  Q 717.66 562.14 711.73 564.46
  Q 693.16 571.72 674.24 578.03
  C 668.29 580.01 662.97 581.47 657.01 580.42
  C 637.64 577.02 635.07 551.46 653.19 544.23
  C 658.50 542.11 665.94 542.71 671.76 540.50
  Q 687.15 534.64 698.67 527.66
  C 714.70 517.94 730.74 505.53 744.67 490.43
  Q 760.48 473.30 769.16 461.16
  Q 776.16 451.36 783.89 442.13
  Q 785.27 440.48 786.55 439.34
  A 1.50 1.50 0.0 0 1 789.01 440.11
  C 791.54 450.77 793.37 461.26 793.90 472.24
  C 795.51 505.27 788.96 538.44 777.54 569.72
  Z"
/>
<circle fill="#115270" cx="381.24" cy="454.66" r="12.69"/>
<path fill="#149e89" d="
  M 631.33 454.12
  C 627.06 455.87 623.11 458.00 618.36 457.98
  A 0.40 0.40 0.0 0 1 618.00 457.39
  Q 618.26 456.90 618.95 456.63
  Q 625.66 454.03 632.47 451.71
  C 635.65 450.63 638.28 446.94 640.53 444.52
  A 0.26 0.26 0.0 0 1 640.89 444.50
  L 641.08 444.67
  Q 641.10 444.69 641.09 444.71
  C 638.27 448.15 635.70 452.33 631.33 454.12
  Z"
/>
<ellipse fill="#062a4c" cx="0.00" cy="0.00" transform="translate(322.08,466.65) rotate(-1.3)" rx="18.92" ry="18.55"/>
<path fill="#0f707e" d="
  M 280.93 481.83
  Q 281.30 505.74 286.28 529.70
  Q 282.33 531.63 278.34 533.33
  C 276.82 533.97 275.27 535.16 273.63 535.80
  C 270.12 537.17 267.17 538.69 263.73 539.68
  C 261.13 540.43 258.99 541.56 256.57 542.58
  A 0.75 0.74 78.8 0 0 256.12 543.27
  L 256.12 543.73
  A 0.46 0.46 0.0 0 1 255.56 544.18
  Q 253.00 543.64 251.28 545.43
  Q 250.95 545.78 250.48 545.70
  Q 248.52 545.37 247.35 546.83
  Q 247.29 546.91 247.18 546.90
  Q 247.02 546.89 246.88 546.82
  Q 246.64 546.71 246.66 546.98
  Q 246.68 547.19 246.67 547.40
  Q 246.66 547.72 246.47 547.75
  Q 246.27 547.77 245.97 547.56
  C 241.39 529.78 238.12 512.11 237.14 493.74
  L 238.32 493.74
  Q 238.79 493.74 238.88 493.28
  L 238.95 492.88
  Q 239.04 492.40 239.52 492.30
  C 242.25 491.73 245.50 490.53 248.37 489.11
  Q 253.01 486.81 261.11 484.15
  Q 263.48 483.38 267.35 481.96
  C 270.52 480.79 274.38 479.30 277.76 479.25
  Q 278.24 479.25 278.59 478.91
  Q 279.02 478.48 279.14 477.97
  Q 279.25 477.49 279.66 477.76
  C 281.32 478.85 279.92 480.52 280.93 481.83
  Z"
/>
<circle fill="#13b38d" cx="420.02" cy="497.85" r="5.47"/>
<ellipse fill="#0d8c86" cx="0.00" cy="0.00" transform="translate(369.21,542.72) rotate(2.6)" rx="31.60" ry="31.00"/>
<circle fill="#13b38d" cx="612.65" cy="531.46" r="10.67"/>
<path fill="#149e89" d="
  M 286.28 529.70
  Q 290.18 544.40 291.72 549.25
  C 304.90 590.80 327.87 626.57 359.76 656.41
  C 353.49 659.48 346.54 662.83 339.71 664.18
  Q 339.24 664.27 338.90 664.59
  Q 338.04 665.40 336.79 665.49
  Q 336.25 665.53 336.01 666.02
  Q 335.76 666.51 335.22 666.75
  A 0.38 0.38 0.0 0 0 335.14 667.40
  Q 335.54 667.70 336.00 667.64
  A 0.02 0.01 32.9 0 0 335.99 667.61
  L 325.83 668.24
  Q 324.86 668.29 325.67 667.76
  L 326.45 667.23
  Q 327.29 666.67 326.28 666.65
  L 321.55 666.57
  Q 321.09 666.56 320.83 666.94
  Q 320.67 667.18 320.41 667.12
  Q 320.18 667.07 320.07 666.86
  Q 319.98 666.69 319.75 666.62
  Q 318.93 666.36 316.31 666.23
  Q 316.24 666.22 316.22 666.29
  L 316.11 666.74
  A 0.23 0.21 88.0 0 1 315.98 666.89
  Q 314.83 667.31 314.08 668.53
  Q 264.83 616.65 245.97 547.56
  Q 246.27 547.77 246.47 547.75
  Q 246.66 547.72 246.67 547.40
  Q 246.68 547.19 246.66 546.98
  Q 246.64 546.71 246.88 546.82
  Q 247.02 546.89 247.18 546.90
  Q 247.29 546.91 247.35 546.83
  Q 248.52 545.37 250.48 545.70
  Q 250.95 545.78 251.28 545.43
  Q 253.00 543.64 255.56 544.18
  A 0.46 0.46 0.0 0 0 256.12 543.73
  L 256.12 543.27
  A 0.75 0.74 78.8 0 1 256.57 542.58
  C 258.99 541.56 261.13 540.43 263.73 539.68
  C 267.17 538.69 270.12 537.17 273.63 535.80
  C 275.27 535.16 276.82 533.97 278.34 533.33
  Q 282.33 531.63 286.28 529.70
  Z"
/>
<ellipse fill="#149e89" cx="0.00" cy="0.00" transform="translate(424.91,541.79) rotate(89.7)" rx="8.58" ry="8.33"/>
<path fill="#37c48d" d="
  M 777.54 569.72
  C 763.79 607.68 740.67 642.26 711.45 670.02
  C 705.37 675.80 698.69 680.83 691.85 685.47
  A 4.97 4.96 28.5 0 1 688.93 686.33
  L 673.50 685.91
  Q 672.44 685.88 673.39 685.39
  C 681.99 680.97 689.76 677.74 698.87 671.76
  C 710.27 664.29 719.94 654.41 728.38 644.09
  Q 730.23 641.83 727.61 643.11
  C 717.26 648.17 702.33 653.29 691.81 648.44
  C 686.32 645.90 682.43 643.84 676.91 645.42
  C 667.80 648.03 660.40 651.07 652.05 645.16
  C 637.98 635.22 642.91 615.04 659.37 611.45
  C 663.38 610.58 669.20 611.87 673.02 610.76
  Q 690.35 605.73 706.49 596.18
  Q 710.90 593.57 713.91 590.78
  Q 714.33 590.80 714.67 590.67
  Q 715.16 590.49 715.36 590.01
  Q 715.57 589.51 716.10 589.35
  Q 716.52 589.22 716.71 588.82
  Q 717.37 587.44 718.70 586.67
  Q 719.09 586.45 719.51 586.62
  C 721.15 587.31 723.43 585.76 724.79 584.81
  Q 726.23 583.82 727.94 583.13
  C 730.66 582.02 732.76 580.09 735.46 579.08
  Q 737.39 578.35 739.26 577.43
  C 742.10 576.04 745.42 575.88 748.48 575.88
  A 0.04 0.04 0.0 0 1 748.49 575.95
  Q 747.75 576.18 747.25 575.45
  Q 746.98 575.03 747.43 574.83
  C 751.63 573.00 756.32 572.33 760.73 571.23
  Q 761.37 571.07 761.36 571.72
  Q 761.36 571.88 761.36 572.03
  Q 761.37 572.30 761.63 572.23
  L 775.39 568.81
  A 0.58 0.57 -29.3 0 1 775.94 568.96
  Q 776.11 569.12 776.29 569.30
  A 0.07 0.07 0.0 0 0 776.40 569.28
  L 776.64 568.68
  A 0.39 0.39 0.0 0 1 777.22 568.50
  Q 777.37 568.60 777.49 568.75
  Q 777.68 569.00 777.44 569.21
  Q 776.41 570.06 777.54 569.72
  Z"
/>
<path fill="#13b38d" d="
  M 503.66 601.96
  Q 504.05 600.37 505.25 600.07
  Q 505.70 599.96 505.77 599.49
  Q 506.03 597.65 507.41 596.43
  Q 510.38 593.79 513.97 592.13
  Q 514.41 591.93 514.87 592.08
  Q 516.08 592.46 517.44 591.95
  Q 517.86 591.79 518.18 591.46
  Q 518.82 590.82 519.49 590.22
  Q 519.90 589.86 520.05 589.33
  Q 520.61 587.31 522.58 587.05
  Q 523.08 586.99 523.51 586.75
  Q 524.63 586.15 525.87 586.33
  Q 526.08 586.36 526.13 586.16
  L 526.20 585.90
  A 0.32 0.31 -39.3 0 1 526.82 585.96
  L 527.00 589.71
  L 526.94 617.26
  Q 526.93 619.45 528.34 617.77
  C 537.81 606.44 534.54 590.39 534.82 576.64
  A 0.78 0.78 0.0 0 1 535.63 575.87
  C 539.76 576.00 547.75 584.11 550.34 587.42
  C 565.20 606.45 549.68 631.02 530.25 637.90
  A 0.95 0.94 -24.7 0 1 529.13 637.49
  C 525.28 631.03 521.24 624.88 515.00 620.74
  C 507.88 616.01 502.93 611.27 503.66 601.96
  Z"
/>
<path fill="#13b38d" d="
  M 508.26 639.40
  A 0.80 0.79 -73.1 0 0 507.67 638.29
  C 487.42 634.93 468.34 616.51 476.29 594.27
  C 478.57 587.91 487.56 579.93 494.10 578.35
  A 0.66 0.66 0.0 0 1 494.91 578.99
  Q 494.84 588.01 494.99 597.01
  C 495.25 612.10 505.11 619.47 515.50 628.24
  Q 525.32 636.53 527.50 649.24
  C 529.99 663.80 527.21 682.16 516.67 693.33
  A 1.83 1.83 0.0 0 1 514.03 693.35
  C 508.19 687.30 504.39 676.64 503.07 668.50
  C 501.21 656.95 503.97 649.06 508.26 639.40
  Z"
/>
<ellipse fill="#149e89" cx="0.00" cy="0.00" transform="translate(421.13,623.23) rotate(-4.0)" rx="29.77" ry="29.33"/>
<ellipse fill="#13b38d" cx="0.00" cy="0.00" transform="translate(599.69,609.00) rotate(107.7)" rx="12.01" ry="11.64"/>
<circle fill="#13b38d" cx="356.21" cy="608.21" r="6.13"/>
<circle fill="#13b38d" cx="599.72" cy="664.56" r="20.65"/>
<path fill="#37c48d" d="
  M 359.76 656.41
  Q 375.53 670.74 393.17 682.67
  C 393.96 683.20 394.76 684.15 395.46 684.79
  A 0.38 0.38 0.0 0 1 395.27 685.45
  Q 391.17 686.23 387.00 686.25
  Q 364.13 686.36 341.25 686.54
  C 335.28 686.58 332.76 685.66 328.02 681.70
  Q 320.65 675.54 314.08 668.53
  Q 314.83 667.31 315.98 666.89
  A 0.23 0.21 88.0 0 0 316.11 666.74
  L 316.22 666.29
  Q 316.24 666.22 316.31 666.23
  Q 318.93 666.36 319.75 666.62
  Q 319.98 666.69 320.07 666.86
  Q 320.18 667.07 320.41 667.12
  Q 320.67 667.18 320.83 666.94
  Q 321.09 666.56 321.55 666.57
  L 326.28 666.65
  Q 327.29 666.67 326.45 667.23
  L 325.67 667.76
  Q 324.86 668.29 325.83 668.24
  L 335.99 667.61
  A 0.02 0.01 32.9 0 1 336.00 667.64
  Q 335.54 667.70 335.14 667.40
  A 0.38 0.38 0.0 0 1 335.22 666.75
  Q 335.76 666.51 336.01 666.02
  Q 336.25 665.53 336.79 665.49
  Q 338.04 665.40 338.90 664.59
  Q 339.24 664.27 339.71 664.18
  C 346.54 662.83 353.49 659.48 359.76 656.41
  Z"
/>
<ellipse fill="#37c48d" cx="0.00" cy="0.00" transform="translate(551.43,663.40) rotate(78.9)" rx="6.33" ry="6.07"/>
<ellipse fill="#13b38d" cx="0.00" cy="0.00" transform="translate(467.77,671.80) rotate(55.6)" rx="10.12" ry="9.79"/>
<path fill="#062a4c" d="
  M 879.88 739.95
  C 872.80 736.85 849.54 728.38 844.66 737.99
  C 841.26 744.69 849.88 748.37 855.13 749.44
  C 874.38 753.35 896.39 758.85 898.30 782.49
  C 899.39 796.08 892.63 808.54 880.53 814.85
  C 868.40 821.18 849.47 821.03 836.99 817.47
  Q 822.27 813.28 810.20 806.78
  Q 807.87 805.53 809.54 802.86
  Q 815.36 793.56 820.95 783.93
  Q 821.56 782.88 822.59 783.53
  C 834.44 791.10 847.33 796.19 861.74 795.20
  C 865.69 794.93 869.46 793.10 870.24 788.92
  C 871.56 781.72 863.29 779.30 857.70 778.24
  C 841.72 775.21 819.98 770.67 815.65 751.71
  C 812.81 739.27 818.38 725.03 828.59 717.08
  Q 836.34 711.04 847.76 709.41
  C 864.07 707.09 877.15 710.94 891.14 717.38
  Q 893.12 718.30 894.90 719.53
  A 0.93 0.93 0.0 0 1 895.19 720.73
  L 884.78 740.24
  Q 884.06 741.58 882.63 741.06
  Q 881.31 740.57 879.88 739.95
  Z"
/>
<path fill="#062a4c" d="
  M 222.48 755.42
  Q 222.11 755.85 221.39 756.87
  C 212.21 769.73 203.56 782.95 193.95 795.49
  Q 193.48 796.10 192.83 795.68
  Q 192.47 795.44 191.97 794.77
  C 182.55 781.99 173.89 768.38 164.86 755.82
  Q 163.21 753.51 163.22 756.35
  L 163.44 816.04
  A 1.87 1.87 0.0 0 1 161.59 817.92
  L 136.53 818.12
  Q 135.18 818.13 135.18 816.78
  L 135.14 710.97
  A 0.98 0.98 0.0 0 1 136.13 709.98
  Q 148.99 710.10 162.13 709.82
  C 165.49 709.75 166.78 710.67 168.37 713.40
  Q 179.56 732.58 192.08 750.93
  Q 192.67 751.79 193.40 752.32
  A 0.35 0.35 0.0 0 0 193.90 752.23
  L 220.05 711.18
  A 2.73 2.73 0.0 0 1 222.33 709.92
  L 250.68 709.73
  Q 252.15 709.72 252.15 711.18
  L 251.99 816.61
  A 1.61 1.61 0.0 0 1 250.38 818.21
  L 225.06 818.14
  A 1.35 1.34 -3.9 0 1 223.72 816.98
  Q 223.36 814.34 223.39 811.25
  Q 223.66 783.74 223.53 755.80
  Q 223.52 754.19 222.48 755.42
  Z"
/>
<path fill="#062a4c" d="
  M 298.54 792.93
  Q 298.70 793.41 299.21 793.41
  Q 320.09 793.13 341.00 793.02
  Q 345.12 793.00 348.48 793.51
  Q 349.99 793.74 349.99 795.27
  L 350.01 816.56
  Q 350.01 817.76 348.86 818.08
  Q 347.91 818.35 346.25 818.35
  Q 309.87 818.30 273.50 818.08
  Q 271.90 818.07 270.29 817.95
  A 0.69 0.69 0.0 0 1 269.66 817.36
  Q 269.40 815.76 269.42 814.25
  Q 269.79 771.63 269.68 729.00
  Q 269.65 719.87 269.35 711.27
  A 1.34 1.33 89.0 0 1 270.68 709.88
  Q 307.00 709.69 342.75 709.76
  Q 344.29 709.76 345.90 710.01
  A 1.04 1.04 0.0 0 1 346.77 711.02
  L 346.79 733.32
  A 1.62 1.61 90.0 0 1 345.18 734.94
  L 299.42 734.98
  A 1.33 1.33 0.0 0 0 298.09 736.33
  L 298.32 751.85
  A 1.28 1.27 89.3 0 0 299.60 753.11
  L 337.96 752.96
  Q 339.56 752.95 339.57 754.55
  L 339.62 774.00
  A 1.68 1.68 0.0 0 1 337.93 775.69
  L 298.89 775.29
  Q 298.12 775.28 298.11 776.05
  Q 298.08 784.01 298.35 791.75
  Q 298.37 792.42 298.54 792.93
  Z"
/>
<path fill="#062a4c" d="
  M 363.08 711.33
  A 1.50 1.50 0.0 0 1 364.58 709.83
  L 412.30 709.91
  A 55.16 53.24 0.1 0 1 467.37 763.25
  L 467.37 765.41
  A 55.16 53.24 0.1 0 1 412.12 818.55
  L 364.40 818.47
  A 1.50 1.50 0.0 0 1 362.90 816.97
  L 363.08 711.33
  Z
  M 390.52 737.26
  L 390.32 791.79
  A 1.44 1.44 0.0 0 0 391.76 793.24
  L 409.74 793.30
  A 29.26 27.43 0.2 0 0 439.10 765.97
  L 439.10 763.41
  A 29.26 27.43 0.2 0 0 409.94 735.88
  L 391.96 735.82
  A 1.44 1.44 0.0 0 0 390.52 737.26
  Z"
/>
<path fill="#062a4c" d="
  M 503.08 762.46
  L 503.39 816.81
  A 1.42 1.42 0.0 0 1 501.96 818.24
  C 493.97 818.15 485.57 818.76 477.77 817.98
  Q 476.13 817.82 476.13 816.17
  L 476.19 710.67
  A 0.79 0.78 -0.8 0 1 476.96 709.89
  Q 488.65 709.65 500.52 709.77
  C 503.44 709.80 504.32 711.60 505.72 713.84
  Q 511.11 722.46 516.66 730.99
  C 524.10 742.43 531.68 754.87 539.45 766.44
  Q 540.91 768.61 540.90 765.99
  L 540.65 710.96
  A 1.15 1.14 89.8 0 1 541.79 709.80
  L 567.19 709.72
  A 1.22 1.22 0.0 0 1 568.42 710.94
  L 568.30 817.23
  A 1.05 1.04 -90.0 0 1 567.27 818.27
  L 542.79 818.36
  A 3.32 3.28 -17.7 0 1 540.08 816.98
  Q 537.80 813.79 535.45 810.07
  Q 520.26 786.00 505.28 761.83
  Q 503.05 758.24 503.08 762.46
  Z"
/>
<path fill="#062a4c" d="
  M 607.24 753.11
  L 645.54 753.01
  A 1.29 1.29 0.0 0 1 646.83 754.31
  L 646.74 774.59
  A 1.29 1.29 0.0 0 1 645.43 775.87
  L 607.19 775.35
  A 1.29 1.29 0.0 0 0 605.89 776.65
  L 606.07 792.02
  A 1.29 1.29 0.0 0 0 607.37 793.29
  L 652.73 792.99
  A 1.29 1.29 0.0 0 1 654.03 794.28
  L 653.95 817.00
  A 1.29 1.29 0.0 0 1 652.66 818.29
  L 579.29 818.31
  A 1.29 1.29 0.0 0 1 578.00 817.02
  L 577.87 711.12
  A 1.29 1.29 0.0 0 1 579.16 709.83
  L 650.45 709.71
  A 1.29 1.29 0.0 0 1 651.74 710.99
  L 651.95 733.69
  A 1.29 1.29 0.0 0 1 650.66 734.99
  L 607.05 734.90
  A 1.29 1.29 0.0 0 0 605.76 736.21
  L 605.94 751.83
  A 1.29 1.29 0.0 0 0 607.24 753.11
  Z"
/>
<path fill="#062a4c" d="
  M 706.71 772.28
  A 0.14 0.14 0.0 0 0 706.95 772.23
  L 724.19 710.88
  A 1.49 1.49 0.0 0 1 725.63 709.78
  L 742.73 709.74
  A 2.37 2.37 0.0 0 1 744.99 711.40
  C 747.61 719.80 749.49 728.45 752.05 736.89
  C 755.23 747.40 758.01 759.09 761.66 769.85
  Q 762.94 773.62 763.48 769.68
  Q 763.65 768.38 764.26 766.01
  Q 771.34 738.15 778.92 710.62
  A 0.97 0.96 7.1 0 1 779.84 709.91
  L 807.66 709.70
  A 0.88 0.88 0.0 0 1 808.50 710.87
  C 804.98 720.72 801.28 733.49 798.95 740.77
  Q 787.62 776.27 777.16 812.03
  C 776.57 814.05 775.60 817.94 773.01 818.01
  Q 764.48 818.24 755.70 817.94
  Q 754.55 817.90 754.16 816.83
  Q 752.45 812.15 751.18 807.72
  Q 744.08 782.91 735.29 759.29
  Q 734.34 756.74 733.46 759.32
  Q 727.91 775.50 722.91 792.69
  C 720.89 799.66 717.87 808.00 715.78 815.88
  A 3.21 3.21 0.0 0 1 712.68 818.27
  L 694.66 818.28
  Q 692.39 818.28 691.74 816.10
  L 660.59 710.85
  A 0.85 0.85 0.0 0 1 661.40 709.75
  Q 674.70 709.77 688.00 709.75
  C 690.21 709.75 690.51 711.15 690.90 712.93
  Q 693.16 723.19 695.99 733.31
  C 699.46 745.72 702.28 758.70 706.12 771.23
  Q 706.31 771.84 706.71 772.28
  Z"
/>
</svg>
